# xmcd
#
# Track frame offsets:
#	150
#	14089
#	21580
#	32536
#	55925
#
# Disc length: 1260 seconds
#
# Revision: 1
# Processed by: cddbd v1.4PL0 Copyright (c) Steve Scherf et al.
# Submitted via: audiograbber 1.80
#
DISCID=3d04ea05
DTITLE=Utopia Blues - Utopia Blues
DYEAR=1900
DGENRE=
TTITLE0=Utopia Blues
TTITLE1=Saras Song
TTITLE2=Love Theme
TTITLE3=Smog über Züri
TTITLE4=Daten-CD
EXTD=
EXTT0=
EXTT1=
EXTT2=
EXTT3=
EXTT4=
PLAYORDER=
